<svg xmlns="http://www.w3.org/2000/svg" width="260" height="210" viewBox="0 0 260 210"><defs><radialGradient id="g0"><stop offset="0" stop-color="#7FF3E8"/><stop offset="0.45" stop-color="#14C9B8" stop-opacity="0.85"/><stop offset="1" stop-color="#14C9B8" stop-opacity="0"/></radialGradient><radialGradient id="g1"><stop offset="0" stop-color="#FFD66B"/><stop offset="0.45" stop-color="#FF7A1A" stop-opacity="0.85"/><stop offset="1" stop-color="#FF7A1A" stop-opacity="0"/></radialGradient><radialGradient id="g2"><stop offset="0" stop-color="#FFE08A"/><stop offset="0.45" stop-color="#FFB627" stop-opacity="0.85"/><stop offset="1" stop-color="#FFB627" stop-opacity="0"/></radialGradient><filter id="p" x="-30%" y="-30%" width="160%" height="160%" color-interpolation-filters="sRGB"><feGaussianBlur in="SourceGraphic" stdDeviation="10" result="soft"/><feTurbulence type="fractalNoise" baseFrequency="0.014 0.024" numOctaves="4" seed="11" result="warp"/><feDisplacementMap in="soft" in2="warp" scale="95" xChannelSelector="R" yChannelSelector="G" result="wisp"/><feTurbulence type="fractalNoise" baseFrequency="0.035" numOctaves="4" seed="16" result="cloud"/><feColorMatrix in="cloud" type="matrix" values="0 0 0 0 0  0 0 0 0 0  0 0 0 0 0  2.6 0 0 0 -0.75" result="billow"/><feComposite in="wisp" in2="billow" operator="in" result="puffs"/><feComponentTransfer in="wisp" result="haze"><feFuncA type="linear" slope="0.4"/></feComponentTransfer><feMerge><feMergeNode in="haze"/><feMergeNode in="puffs"/></feMerge></filter></defs><g filter="url(#p)"><ellipse cx="120" cy="100" rx="55" ry="45" fill="url(#g0)"/><ellipse cx="79.5" cy="97.6" rx="23.2" ry="18.8" fill="url(#g0)" opacity="0.8"/><ellipse cx="144.2" cy="73.1" rx="17.4" ry="18.3" fill="url(#g0)" opacity="0.8"/><ellipse cx="89.9" cy="80.2" rx="21.8" ry="21.1" fill="url(#g0)" opacity="0.8"/><ellipse cx="81.4" cy="117.4" rx="24" ry="14.9" fill="url(#g0)" opacity="0.8"/><ellipse cx="190" cy="80" rx="40" ry="35" fill="url(#g1)"/><ellipse cx="200.8" cy="99.7" rx="15.2" ry="13.1" fill="url(#g1)" opacity="0.8"/><ellipse cx="170.6" cy="70.3" rx="16.8" ry="14.5" fill="url(#g1)" opacity="0.8"/><ellipse cx="159.3" cy="95.1" rx="18.4" ry="15.9" fill="url(#g1)" opacity="0.8"/><ellipse cx="177.1" cy="104.9" rx="14" ry="10.9" fill="url(#g1)" opacity="0.8"/><ellipse cx="170" cy="150" rx="35" ry="28" fill="url(#g2)"/><ellipse cx="168.1" cy="123.7" rx="12.6" ry="9.2" fill="url(#g2)" opacity="0.8"/><ellipse cx="169.1" cy="131.6" rx="14.4" ry="11.6" fill="url(#g2)" opacity="0.8"/><ellipse cx="181.2" cy="137" rx="16.4" ry="13" fill="url(#g2)" opacity="0.8"/><ellipse cx="156.6" cy="159.5" rx="11" ry="13.1" fill="url(#g2)" opacity="0.8"/></g><circle cx="159.6" cy="75.6" r="1.7" fill="#FF7A1A" opacity="0.7"/><circle cx="18.5" cy="130.2" r="1" fill="#14C9B8" opacity="0.6"/><circle cx="112.9" cy="44.8" r="1" fill="#7FF3E8" opacity="0.6"/><circle cx="189" cy="174" r="1.3" fill="#FFB627" opacity="0.6"/><circle cx="207.6" cy="73.6" r="1" fill="#FFD66B" opacity="0.7"/><circle cx="163.7" cy="140.5" r="2.2" fill="#FF7A1A" opacity="0.6"/><circle cx="136.5" cy="107.4" r="1" fill="#14C9B8" opacity="0.7"/><circle cx="192.3" cy="78.2" r="1.3" fill="#FFD66B" opacity="0.6"/><circle cx="56.9" cy="27.2" r="1.3" fill="#14C9B8" opacity="0.4"/><circle cx="254.7" cy="70" r="1" fill="#FFD66B" opacity="0.7"/><circle cx="114.9" cy="117.7" r="1.3" fill="#14C9B8" opacity="0.8"/><circle cx="152.1" cy="117.1" r="0.8" fill="#7FF3E8" opacity="0.9"/><circle cx="223.8" cy="151.4" r="1" fill="#FFE08A" opacity="0.7"/><circle cx="36.1" cy="101.7" r="1.7" fill="#14C9B8" opacity="0.4"/><circle cx="126.7" cy="120.3" r="2.2" fill="#FFE08A" opacity="0.4"/><circle cx="86.9" cy="81.3" r="1" fill="#14C9B8" opacity="0.4"/><circle cx="184.3" cy="118.7" r="1" fill="#FF7A1A" opacity="0.7"/><circle cx="220.5" cy="75.8" r="0.8" fill="#FFD66B" opacity="0.5"/><circle cx="159.5" cy="46.3" r="0.8" fill="#FFD66B" opacity="0.4"/><circle cx="188.9" cy="190.7" r="1.7" fill="#FFE08A" opacity="0.4"/><circle cx="117" cy="33.2" r="1" fill="#14C9B8" opacity="0.9"/><circle cx="181" cy="37.7" r="1.3" fill="#FF7A1A" opacity="0.8"/><circle cx="135.4" cy="142.8" r="0.6" fill="#7FF3E8" opacity="0.9"/><circle cx="92.3" cy="142.2" r="1" fill="#FFE08A" opacity="0.5"/><circle cx="172.6" cy="152.5" r="2.2" fill="#FFE08A" opacity="0.6"/><circle cx="142.4" cy="97.8" r="0.6" fill="#FF7A1A" opacity="0.9"/><circle cx="133.8" cy="56.4" r="0.6" fill="#FFD66B" opacity="0.5"/><circle cx="41.1" cy="124.7" r="1" fill="#14C9B8" opacity="0.9"/><circle cx="181.6" cy="81.8" r="1" fill="#FFD66B" opacity="0.5"/><circle cx="218.2" cy="71.2" r="1" fill="#FF7A1A" opacity="0.5"/><circle cx="237.1" cy="85.4" r="0.8" fill="#FF7A1A" opacity="0.6"/><circle cx="145.5" cy="135.6" r="1" fill="#FFE08A" opacity="0.9"/><circle cx="101.7" cy="40.9" r="1" fill="#7FF3E8" opacity="0.4"/><circle cx="212.6" cy="128.9" r="1" fill="#FFE08A" opacity="0.7"/><circle cx="214.2" cy="142.3" r="1" fill="#FFE08A" opacity="0.8"/><circle cx="109.5" cy="58" r="1.7" fill="#14C9B8" opacity="0.9"/><circle cx="203.1" cy="175.7" r="0.6" fill="#FFE08A" opacity="0.5"/><circle cx="178.5" cy="117.1" r="1.7" fill="#FFD66B" opacity="0.9"/><circle cx="199.5" cy="58.1" r="1" fill="#FFD66B" opacity="0.4"/><circle cx="174.8" cy="85.2" r="0.8" fill="#FFD66B" opacity="0.5"/><circle cx="133" cy="107.6" r="0.6" fill="#7FF3E8" opacity="0.6"/><circle cx="173.3" cy="118.5" r="2.2" fill="#14C9B8" opacity="0.9"/><circle cx="145.8" cy="135.8" r="1" fill="#FFD66B" opacity="0.8"/><circle cx="163.8" cy="144.9" r="0.8" fill="#FFB627" opacity="0.4"/><circle cx="165.8" cy="48.6" r="0.6" fill="#7FF3E8" opacity="0.8"/><circle cx="74.2" cy="139.7" r="1.7" fill="#14C9B8" opacity="0.4"/><circle cx="156.4" cy="105.7" r="0.6" fill="#7FF3E8" opacity="0.9"/><circle cx="76.8" cy="149.3" r="0.6" fill="#14C9B8" opacity="0.8"/><circle cx="165.8" cy="152.6" r="1" fill="#FFE08A" opacity="0.7"/><circle cx="178.1" cy="88.2" r="1" fill="#FF7A1A" opacity="0.9"/><circle cx="81.2" cy="64" r="0.6" fill="#7FF3E8" opacity="0.5"/><circle cx="163.1" cy="107" r="1" fill="#FFB627" opacity="0.5"/><circle cx="157.1" cy="72.3" r="1.7" fill="#7FF3E8" opacity="0.4"/><circle cx="147.8" cy="163" r="1" fill="#FFB627" opacity="0.4"/><circle cx="163.4" cy="114.4" r="1" fill="#14C9B8" opacity="0.7"/><circle cx="193.8" cy="22.5" r="1" fill="#FF7A1A" opacity="0.8"/><circle cx="154.6" cy="143.3" r="0.8" fill="#7FF3E8" opacity="0.5"/><circle cx="127.3" cy="156.9" r="0.6" fill="#14C9B8" opacity="0.7"/><circle cx="174.5" cy="91.5" r="1" fill="#7FF3E8" opacity="0.6"/><circle cx="126.2" cy="179" r="0.8" fill="#FFE08A" opacity="0.5"/><circle cx="161.9" cy="60.7" r="0.6" fill="#14C9B8" opacity="0.6"/><circle cx="100.2" cy="67.7" r="1" fill="#14C9B8" opacity="0.9"/><circle cx="148.1" cy="125.6" r="1" fill="#FFE08A" opacity="0.8"/><circle cx="198.3" cy="158.3" r="2.2" fill="#FFE08A" opacity="0.6"/><circle cx="98.4" cy="78.5" r="2.2" fill="#14C9B8" opacity="0.9"/><circle cx="125.3" cy="163" r="1" fill="#14C9B8" opacity="0.4"/><circle cx="208.8" cy="52" r="1" fill="#FF7A1A" opacity="0.6"/><circle cx="183.8" cy="42.5" r="0.8" fill="#FFD66B" opacity="0.4"/><circle cx="42.6" cy="66.8" r="1.7" fill="#7FF3E8" opacity="0.4"/><circle cx="215" cy="151.3" r="0.6" fill="#FFB627" opacity="0.9"/></svg>
