<svg xmlns="http://www.w3.org/2000/svg" width="260" height="210" viewBox="0 0 260 210"><defs><radialGradient id="g0"><stop offset="0" stop-color="#FFD66B"/><stop offset="0.45" stop-color="#FF7A1A" stop-opacity="0.85"/><stop offset="1" stop-color="#FF7A1A" stop-opacity="0"/></radialGradient><radialGradient id="g1"><stop offset="0" stop-color="#FFE08A"/><stop offset="0.45" stop-color="#FFB627" stop-opacity="0.85"/><stop offset="1" stop-color="#FFB627" stop-opacity="0"/></radialGradient><radialGradient id="g2"><stop offset="0" stop-color="#FF8CC6"/><stop offset="0.45" stop-color="#FF2E97" stop-opacity="0.85"/><stop offset="1" stop-color="#FF2E97" stop-opacity="0"/></radialGradient><filter id="p" x="-30%" y="-30%" width="160%" height="160%" color-interpolation-filters="sRGB"><feGaussianBlur in="SourceGraphic" stdDeviation="10" result="soft"/><feTurbulence type="fractalNoise" baseFrequency="0.014 0.024" numOctaves="4" seed="12" result="warp"/><feDisplacementMap in="soft" in2="warp" scale="95" xChannelSelector="R" yChannelSelector="G" result="wisp"/><feTurbulence type="fractalNoise" baseFrequency="0.035" numOctaves="4" seed="17" result="cloud"/><feColorMatrix in="cloud" type="matrix" values="0 0 0 0 0  0 0 0 0 0  0 0 0 0 0  2.6 0 0 0 -0.75" result="billow"/><feComposite in="wisp" in2="billow" operator="in" result="puffs"/><feComponentTransfer in="wisp" result="haze"><feFuncA type="linear" slope="0.4"/></feComponentTransfer><feMerge><feMergeNode in="haze"/><feMergeNode in="puffs"/></feMerge></filter></defs><g filter="url(#p)"><ellipse cx="120" cy="100" rx="55" ry="45" fill="url(#g0)"/><ellipse cx="113" cy="123.3" rx="22.9" ry="22" fill="url(#g0)" opacity="0.8"/><ellipse cx="136" cy="118.7" rx="24.2" ry="19.3" fill="url(#g0)" opacity="0.8"/><ellipse cx="77" cy="87.4" rx="16.8" ry="21.9" fill="url(#g0)" opacity="0.8"/><ellipse cx="101.4" cy="129.2" rx="24.7" ry="19.4" fill="url(#g0)" opacity="0.8"/><ellipse cx="190" cy="80" rx="40" ry="35" fill="url(#g1)"/><ellipse cx="156.3" cy="74.1" rx="20" ry="12.2" fill="url(#g1)" opacity="0.8"/><ellipse cx="177.8" cy="109.7" rx="15.1" ry="13.5" fill="url(#g1)" opacity="0.8"/><ellipse cx="192.1" cy="99.5" rx="15.2" ry="10.9" fill="url(#g1)" opacity="0.8"/><ellipse cx="186.5" cy="102" rx="14.6" ry="11.7" fill="url(#g1)" opacity="0.8"/><ellipse cx="170" cy="150" rx="35" ry="28" fill="url(#g2)"/><ellipse cx="148.7" cy="136.4" rx="12.5" ry="11.4" fill="url(#g2)" opacity="0.8"/><ellipse cx="157.9" cy="164.1" rx="13.3" ry="12.6" fill="url(#g2)" opacity="0.8"/><ellipse cx="178.5" cy="162.5" rx="14.5" ry="11.3" fill="url(#g2)" opacity="0.8"/><ellipse cx="181.3" cy="162.3" rx="15.4" ry="10.5" fill="url(#g2)" opacity="0.8"/></g><circle cx="59.1" cy="148" r="0.6" fill="#FFD66B" opacity="0.6"/><circle cx="62.6" cy="127.3" r="0.6" fill="#FF7A1A" opacity="0.7"/><circle cx="135.8" cy="94.6" r="0.6" fill="#FFE08A" opacity="0.7"/><circle cx="170.5" cy="125.8" r="1.7" fill="#FF2E97" opacity="0.9"/><circle cx="175.9" cy="54.8" r="0.6" fill="#FF7A1A" opacity="0.9"/><circle cx="79.2" cy="101.6" r="1" fill="#FFD66B" opacity="0.4"/><circle cx="90" cy="136.3" r="0.6" fill="#FF2E97" opacity="0.7"/><circle cx="174.4" cy="43.6" r="1" fill="#FFD66B" opacity="0.8"/><circle cx="202.7" cy="134.8" r="1.7" fill="#FFB627" opacity="0.6"/><circle cx="210.9" cy="120.2" r="1" fill="#FFE08A" opacity="0.6"/><circle cx="148.3" cy="170.1" r="0.6" fill="#FF2E97" opacity="0.7"/><circle cx="30.9" cy="122.3" r="0.8" fill="#FFD66B" opacity="0.9"/><circle cx="229.2" cy="50.6" r="0.6" fill="#FFB627" opacity="0.6"/><circle cx="79.2" cy="53.5" r="1" fill="#FF7A1A" opacity="0.4"/><circle cx="154.1" cy="108.9" r="0.6" fill="#FFB627" opacity="0.5"/><circle cx="149.3" cy="46.6" r="1" fill="#FFB627" opacity="0.7"/><circle cx="148.5" cy="135.4" r="0.8" fill="#FF8CC6" opacity="0.8"/><circle cx="116" cy="165.5" r="1" fill="#FF2E97" opacity="0.6"/><circle cx="209.6" cy="47.6" r="2.2" fill="#FFB627" opacity="0.6"/><circle cx="193" cy="108.9" r="0.8" fill="#FF8CC6" opacity="0.6"/><circle cx="103.8" cy="113.7" r="1.7" fill="#FF7A1A" opacity="0.8"/><circle cx="148.1" cy="151.2" r="1" fill="#FF8CC6" opacity="0.8"/><circle cx="225.5" cy="111.8" r="0.8" fill="#FFE08A" opacity="0.5"/><circle cx="203.2" cy="64.8" r="1.3" fill="#FF7A1A" opacity="0.9"/><circle cx="135.3" cy="70.4" r="0.8" fill="#FF7A1A" opacity="0.9"/><circle cx="148.5" cy="120.4" r="0.6" fill="#FFB627" opacity="0.6"/><circle cx="153.5" cy="33.5" r="1" fill="#FFD66B" opacity="0.7"/><circle cx="108.6" cy="79.4" r="0.6" fill="#FFD66B" opacity="0.8"/><circle cx="183.4" cy="87.8" r="1.3" fill="#FFE08A" opacity="0.6"/><circle cx="164.7" cy="89.7" r="1" fill="#FFE08A" opacity="0.6"/><circle cx="186.9" cy="107.6" r="1" fill="#FF8CC6" opacity="0.8"/><circle cx="206.9" cy="68.7" r="1.3" fill="#FFB627" opacity="0.7"/><circle cx="222.6" cy="144.9" r="1.3" fill="#FF2E97" opacity="0.7"/><circle cx="99.5" cy="89.4" r="0.6" fill="#FFB627" opacity="0.4"/><circle cx="164.5" cy="122.5" r="2.2" fill="#FFB627" opacity="0.9"/><circle cx="137.8" cy="37.4" r="1.3" fill="#FF7A1A" opacity="0.6"/><circle cx="159.6" cy="180.4" r="2.2" fill="#FF2E97" opacity="0.5"/><circle cx="151.8" cy="70.5" r="1" fill="#FFD66B" opacity="0.6"/><circle cx="148.3" cy="174.3" r="0.6" fill="#FF2E97" opacity="0.9"/><circle cx="175.9" cy="46" r="2.2" fill="#FFB627" opacity="0.6"/><circle cx="120" cy="99.6" r="1" fill="#FF7A1A" opacity="0.5"/><circle cx="208.3" cy="142.3" r="1" fill="#FF8CC6" opacity="0.4"/><circle cx="181" cy="76.3" r="0.8" fill="#FFB627" opacity="0.7"/><circle cx="18.8" cy="74" r="1" fill="#FF7A1A" opacity="0.9"/><circle cx="129.5" cy="127.1" r="1" fill="#FF2E97" opacity="0.4"/><circle cx="243.4" cy="59.3" r="2.2" fill="#FFB627" opacity="0.6"/><circle cx="193.8" cy="116.6" r="1" fill="#FF8CC6" opacity="0.4"/><circle cx="112.2" cy="111.1" r="1" fill="#FFD66B" opacity="0.8"/><circle cx="195.9" cy="79.2" r="1" fill="#FFD66B" opacity="0.7"/><circle cx="148.9" cy="129.6" r="2.2" fill="#FF2E97" opacity="0.4"/><circle cx="254" cy="106.4" r="0.8" fill="#FFE08A" opacity="0.8"/><circle cx="99.1" cy="68.5" r="2.2" fill="#FFD66B" opacity="0.7"/><circle cx="178.5" cy="45.3" r="1.7" fill="#FFB627" opacity="0.5"/><circle cx="251.7" cy="83.1" r="1" fill="#FFE08A" opacity="0.5"/><circle cx="183.3" cy="128.2" r="0.6" fill="#FF2E97" opacity="0.9"/><circle cx="96.7" cy="127.4" r="0.8" fill="#FFD66B" opacity="0.6"/><circle cx="102.6" cy="83" r="1.7" fill="#FFD66B" opacity="0.6"/><circle cx="205.2" cy="136.7" r="1.7" fill="#FF8CC6" opacity="0.5"/><circle cx="213.5" cy="71.9" r="0.6" fill="#FFB627" opacity="0.6"/><circle cx="111.7" cy="79.5" r="1.3" fill="#FF7A1A" opacity="0.6"/><circle cx="137.5" cy="82.9" r="1.7" fill="#FFD66B" opacity="0.6"/><circle cx="93.3" cy="88.8" r="1" fill="#FFD66B" opacity="0.6"/><circle cx="231.4" cy="90.8" r="1.7" fill="#FFB627" opacity="0.7"/><circle cx="174.3" cy="135.1" r="0.8" fill="#FFB627" opacity="0.7"/><circle cx="181.1" cy="49.2" r="1" fill="#FFE08A" opacity="0.6"/><circle cx="186.6" cy="35" r="1.7" fill="#FFE08A" opacity="0.7"/><circle cx="182.7" cy="148.3" r="1" fill="#FF8CC6" opacity="0.9"/><circle cx="62.7" cy="54.5" r="2.2" fill="#FF7A1A" opacity="0.5"/><circle cx="214.7" cy="162.4" r="1.3" fill="#FF2E97" opacity="0.6"/><circle cx="143.6" cy="172.8" r="0.8" fill="#FF2E97" opacity="0.6"/></svg>
