<svg xmlns="http://www.w3.org/2000/svg" width="260" height="210" viewBox="0 0 260 210"><defs><radialGradient id="g0"><stop offset="0" stop-color="#FFE08A"/><stop offset="0.45" stop-color="#FFB627" stop-opacity="0.85"/><stop offset="1" stop-color="#FFB627" stop-opacity="0"/></radialGradient><radialGradient id="g1"><stop offset="0" stop-color="#FF8CC6"/><stop offset="0.45" stop-color="#FF2E97" stop-opacity="0.85"/><stop offset="1" stop-color="#FF2E97" stop-opacity="0"/></radialGradient><radialGradient id="g2"><stop offset="0" stop-color="#C9A6FF"/><stop offset="0.45" stop-color="#9D5CFF" stop-opacity="0.85"/><stop offset="1" stop-color="#9D5CFF" stop-opacity="0"/></radialGradient><filter id="p" x="-30%" y="-30%" width="160%" height="160%" color-interpolation-filters="sRGB"><feGaussianBlur in="SourceGraphic" stdDeviation="10" result="soft"/><feTurbulence type="fractalNoise" baseFrequency="0.014 0.024" numOctaves="4" seed="7" result="warp"/><feDisplacementMap in="soft" in2="warp" scale="95" xChannelSelector="R" yChannelSelector="G" result="wisp"/><feTurbulence type="fractalNoise" baseFrequency="0.035" numOctaves="4" seed="12" result="cloud"/><feColorMatrix in="cloud" type="matrix" values="0 0 0 0 0  0 0 0 0 0  0 0 0 0 0  2.6 0 0 0 -0.75" result="billow"/><feComposite in="wisp" in2="billow" operator="in" result="puffs"/><feComponentTransfer in="wisp" result="haze"><feFuncA type="linear" slope="0.4"/></feComponentTransfer><feMerge><feMergeNode in="haze"/><feMergeNode in="puffs"/></feMerge></filter></defs><g filter="url(#p)"><ellipse cx="120" cy="100" rx="55" ry="45" fill="url(#g0)"/><ellipse cx="149" cy="101.7" rx="27.2" ry="19.8" fill="url(#g0)" opacity="0.8"/><ellipse cx="82.8" cy="95.9" rx="21.6" ry="15.7" fill="url(#g0)" opacity="0.8"/><ellipse cx="77" cy="87.7" rx="19.3" ry="14.9" fill="url(#g0)" opacity="0.8"/><ellipse cx="123.6" cy="67.1" rx="18.7" ry="16.8" fill="url(#g0)" opacity="0.8"/><ellipse cx="190" cy="80" rx="40" ry="35" fill="url(#g1)"/><ellipse cx="182" cy="105" rx="14.4" ry="17.3" fill="url(#g1)" opacity="0.8"/><ellipse cx="190.6" cy="111.3" rx="13.5" ry="11.5" fill="url(#g1)" opacity="0.8"/><ellipse cx="204.2" cy="98.2" rx="16.4" ry="15.8" fill="url(#g1)" opacity="0.8"/><ellipse cx="222.5" cy="94.4" rx="16.4" ry="14.9" fill="url(#g1)" opacity="0.8"/><ellipse cx="170" cy="150" rx="35" ry="28" fill="url(#g2)"/><ellipse cx="156.1" cy="126.3" rx="14.9" ry="13.6" fill="url(#g2)" opacity="0.8"/><ellipse cx="178.5" cy="137.2" rx="11.7" ry="10.4" fill="url(#g2)" opacity="0.8"/><ellipse cx="154.1" cy="156.4" rx="11.1" ry="12.7" fill="url(#g2)" opacity="0.8"/><ellipse cx="153.5" cy="164.2" rx="13.8" ry="13.7" fill="url(#g2)" opacity="0.8"/></g><circle cx="158.1" cy="126.7" r="0.6" fill="#9D5CFF" opacity="0.9"/><circle cx="136.2" cy="133.7" r="0.6" fill="#FFE08A" opacity="0.9"/><circle cx="225" cy="21.4" r="0.6" fill="#FF8CC6" opacity="0.7"/><circle cx="181.7" cy="147.6" r="2.2" fill="#C9A6FF" opacity="0.7"/><circle cx="201.3" cy="150.9" r="1.7" fill="#C9A6FF" opacity="0.8"/><circle cx="160.5" cy="147.1" r="1.3" fill="#C9A6FF" opacity="0.7"/><circle cx="125.8" cy="157.1" r="2.2" fill="#FFE08A" opacity="0.7"/><circle cx="77.6" cy="67.9" r="2.2" fill="#FFB627" opacity="0.9"/><circle cx="211.2" cy="28.5" r="0.6" fill="#FF8CC6" opacity="0.7"/><circle cx="218.3" cy="119.5" r="1.7" fill="#FF8CC6" opacity="0.8"/><circle cx="235.4" cy="77.6" r="2.2" fill="#FF2E97" opacity="0.5"/><circle cx="208" cy="26.6" r="1" fill="#FF2E97" opacity="0.7"/><circle cx="119.9" cy="128.1" r="0.8" fill="#FFB627" opacity="0.5"/><circle cx="218.8" cy="164.5" r="0.6" fill="#FFB627" opacity="0.6"/><circle cx="186.1" cy="49.7" r="1.7" fill="#FF8CC6" opacity="0.8"/><circle cx="198.2" cy="57.1" r="1" fill="#FF8CC6" opacity="0.8"/><circle cx="118.7" cy="175.3" r="1.7" fill="#FFB627" opacity="0.6"/><circle cx="169.8" cy="169.4" r="1.7" fill="#9D5CFF" opacity="0.9"/><circle cx="163.4" cy="89.8" r="1" fill="#FF8CC6" opacity="0.7"/><circle cx="181.7" cy="135.5" r="1.3" fill="#C9A6FF" opacity="0.7"/><circle cx="201.7" cy="96.6" r="1.3" fill="#FF8CC6" opacity="0.6"/><circle cx="171.4" cy="126.9" r="2.2" fill="#FFB627" opacity="0.5"/><circle cx="105.1" cy="35.3" r="1.7" fill="#FFE08A" opacity="0.5"/><circle cx="165.2" cy="168.6" r="1.3" fill="#C9A6FF" opacity="0.7"/><circle cx="142.2" cy="128.7" r="1.7" fill="#9D5CFF" opacity="0.4"/><circle cx="151.4" cy="153.4" r="2.2" fill="#C9A6FF" opacity="0.4"/><circle cx="111.3" cy="130" r="2.2" fill="#FFE08A" opacity="0.7"/><circle cx="158.9" cy="198.5" r="1.3" fill="#C9A6FF" opacity="0.6"/><circle cx="246.9" cy="138.1" r="0.8" fill="#C9A6FF" opacity="0.4"/><circle cx="159.1" cy="80.2" r="0.8" fill="#FFE08A" opacity="0.8"/><circle cx="161.8" cy="197.1" r="1" fill="#9D5CFF" opacity="0.7"/><circle cx="127.9" cy="53.8" r="1.7" fill="#FFB627" opacity="0.5"/><circle cx="209.3" cy="125" r="1.3" fill="#9D5CFF" opacity="0.4"/><circle cx="183.6" cy="96.2" r="1" fill="#FFB627" opacity="0.7"/><circle cx="198.6" cy="39.3" r="0.8" fill="#FF2E97" opacity="0.5"/><circle cx="215.7" cy="157.2" r="2.2" fill="#9D5CFF" opacity="0.7"/><circle cx="199.8" cy="193.8" r="1.3" fill="#C9A6FF" opacity="0.9"/><circle cx="36" cy="67.6" r="2.2" fill="#FFB627" opacity="0.4"/><circle cx="68.5" cy="159.9" r="2.2" fill="#FFE08A" opacity="0.8"/><circle cx="150" cy="131.2" r="1" fill="#9D5CFF" opacity="0.7"/><circle cx="122" cy="130.7" r="1.3" fill="#FFB627" opacity="0.8"/><circle cx="117.5" cy="73.4" r="1" fill="#FFE08A" opacity="0.4"/><circle cx="165" cy="74.3" r="0.6" fill="#FF2E97" opacity="0.9"/><circle cx="139.9" cy="148.2" r="2.2" fill="#9D5CFF" opacity="0.8"/><circle cx="198.3" cy="124.8" r="1.7" fill="#FF8CC6" opacity="0.7"/><circle cx="196" cy="186" r="0.6" fill="#C9A6FF" opacity="0.8"/><circle cx="168.6" cy="101.6" r="1" fill="#FFE08A" opacity="0.9"/><circle cx="70.8" cy="86.6" r="0.6" fill="#FFE08A" opacity="0.4"/><circle cx="131.1" cy="95.5" r="1.7" fill="#FF8CC6" opacity="0.8"/><circle cx="190.4" cy="57.6" r="1.3" fill="#FF8CC6" opacity="0.8"/><circle cx="187.8" cy="136" r="1.3" fill="#9D5CFF" opacity="0.5"/><circle cx="143.7" cy="143.3" r="1.3" fill="#FFB627" opacity="0.4"/><circle cx="188.2" cy="77.2" r="0.8" fill="#FFE08A" opacity="0.4"/><circle cx="179.6" cy="150.2" r="2.2" fill="#C9A6FF" opacity="0.6"/><circle cx="164.9" cy="175.7" r="1.7" fill="#C9A6FF" opacity="0.8"/><circle cx="142.6" cy="43.8" r="1" fill="#FF2E97" opacity="0.8"/><circle cx="93.4" cy="143.2" r="2.2" fill="#FFE08A" opacity="0.7"/><circle cx="198" cy="123.8" r="0.8" fill="#9D5CFF" opacity="0.6"/><circle cx="29" cy="120.9" r="0.6" fill="#FFE08A" opacity="0.6"/><circle cx="187.9" cy="115.4" r="2.2" fill="#FFE08A" opacity="0.8"/><circle cx="221.7" cy="139.8" r="1.7" fill="#C9A6FF" opacity="0.9"/><circle cx="160" cy="121.9" r="1.7" fill="#9D5CFF" opacity="0.8"/><circle cx="59.1" cy="74.4" r="1" fill="#FFE08A" opacity="0.9"/><circle cx="147.3" cy="102" r="0.6" fill="#FFB627" opacity="0.6"/><circle cx="84.6" cy="41" r="1.7" fill="#FFE08A" opacity="0.7"/><circle cx="224" cy="122.8" r="2.2" fill="#9D5CFF" opacity="0.9"/><circle cx="131.7" cy="151" r="1" fill="#C9A6FF" opacity="0.8"/><circle cx="191.7" cy="59.1" r="1.7" fill="#FF8CC6" opacity="0.8"/></svg>
