<svg xmlns="http://www.w3.org/2000/svg" width="500" height="330" viewBox="0 0 500 330"><defs><radialGradient id="g0"><stop offset="0" stop-color="#8CC2FF"/><stop offset="0.45" stop-color="#1E7BFF" stop-opacity="0.85"/><stop offset="1" stop-color="#1E7BFF" stop-opacity="0"/></radialGradient><radialGradient id="g1"><stop offset="0" stop-color="#7FF3E8"/><stop offset="0.45" stop-color="#14C9B8" stop-opacity="0.85"/><stop offset="1" stop-color="#14C9B8" stop-opacity="0"/></radialGradient><radialGradient id="g2"><stop offset="0" stop-color="#FFD66B"/><stop offset="0.45" stop-color="#FF7A1A" stop-opacity="0.85"/><stop offset="1" stop-color="#FF7A1A" stop-opacity="0"/></radialGradient><radialGradient id="g3"><stop offset="0" stop-color="#FF8CC6"/><stop offset="0.45" stop-color="#FF2E97" stop-opacity="0.85"/><stop offset="1" stop-color="#FF2E97" stop-opacity="0"/></radialGradient><radialGradient id="g4"><stop offset="0" stop-color="#C9A6FF"/><stop offset="0.45" stop-color="#9D5CFF" stop-opacity="0.85"/><stop offset="1" stop-color="#9D5CFF" stop-opacity="0"/></radialGradient><filter id="p" x="-30%" y="-30%" width="160%" height="160%" color-interpolation-filters="sRGB"><feGaussianBlur in="SourceGraphic" stdDeviation="10" result="soft"/><feTurbulence type="fractalNoise" baseFrequency="0.014 0.024" numOctaves="4" seed="23" result="warp"/><feDisplacementMap in="soft" in2="warp" scale="95" xChannelSelector="R" yChannelSelector="G" result="wisp"/><feTurbulence type="fractalNoise" baseFrequency="0.035" numOctaves="4" seed="28" result="cloud"/><feColorMatrix in="cloud" type="matrix" values="0 0 0 0 0  0 0 0 0 0  0 0 0 0 0  2.6 0 0 0 -0.75" result="billow"/><feComposite in="wisp" in2="billow" operator="in" result="puffs"/><feComponentTransfer in="wisp" result="haze"><feFuncA type="linear" slope="0.4"/></feComponentTransfer><feMerge><feMergeNode in="haze"/><feMergeNode in="puffs"/></feMerge></filter></defs><g filter="url(#p)"><ellipse cx="95" cy="170" rx="80" ry="60" fill="url(#g0)"/><ellipse cx="130.5" cy="187.5" rx="34.1" ry="21.7" fill="url(#g0)" opacity="0.8"/><ellipse cx="73.6" cy="202" rx="32.2" ry="29.4" fill="url(#g0)" opacity="0.8"/><ellipse cx="113.5" cy="143.1" rx="35.3" ry="20.5" fill="url(#g0)" opacity="0.8"/><ellipse cx="159.7" cy="199.2" rx="37.4" ry="23.7" fill="url(#g0)" opacity="0.8"/><ellipse cx="185" cy="150" rx="75" ry="70" fill="url(#g1)"/><ellipse cx="182.9" cy="113.3" rx="29.3" ry="30.2" fill="url(#g1)" opacity="0.8"/><ellipse cx="229.5" cy="146.2" rx="35.2" ry="24.2" fill="url(#g1)" opacity="0.8"/><ellipse cx="208.2" cy="205.6" rx="24.9" ry="31" fill="url(#g1)" opacity="0.8"/><ellipse cx="147.2" cy="186.9" rx="36.7" ry="31.7" fill="url(#g1)" opacity="0.8"/><ellipse cx="255" cy="120" rx="80" ry="75" fill="url(#g2)"/><ellipse cx="312.5" cy="78.1" rx="34.3" ry="34.7" fill="url(#g2)" opacity="0.8"/><ellipse cx="242.7" cy="76.7" rx="29" ry="30.3" fill="url(#g2)" opacity="0.8"/><ellipse cx="313.8" cy="77.5" rx="37" ry="32.2" fill="url(#g2)" opacity="0.8"/><ellipse cx="224.8" cy="182" rx="27.3" ry="28.4" fill="url(#g2)" opacity="0.8"/><ellipse cx="355" cy="150" rx="95" ry="80" fill="url(#g3)"/><ellipse cx="372.5" cy="106.6" rx="41.4" ry="38.3" fill="url(#g3)" opacity="0.8"/><ellipse cx="362.6" cy="110.3" rx="39.6" ry="32.5" fill="url(#g3)" opacity="0.8"/><ellipse cx="355.5" cy="97" rx="34.1" ry="24.8" fill="url(#g3)" opacity="0.8"/><ellipse cx="411" cy="153.2" rx="40.8" ry="25.4" fill="url(#g3)" opacity="0.8"/><ellipse cx="440" cy="200" rx="60" ry="50" fill="url(#g4)"/><ellipse cx="390.7" cy="179" rx="26.3" ry="16.8" fill="url(#g4)" opacity="0.8"/><ellipse cx="463.1" cy="236.7" rx="24.6" ry="18.1" fill="url(#g4)" opacity="0.8"/><ellipse cx="487.5" cy="218.5" rx="26.8" ry="23.4" fill="url(#g4)" opacity="0.8"/><ellipse cx="431.8" cy="175.4" rx="20" ry="21.6" fill="url(#g4)" opacity="0.8"/></g><circle cx="378" cy="246.9" r="0.8" fill="#FF8CC6" opacity="0.9"/><circle cx="57.8" cy="73.1" r="2.2" fill="#8CC2FF" opacity="0.8"/><circle cx="465.5" cy="123.3" r="0.6" fill="#C9A6FF" opacity="0.7"/><circle cx="242.9" cy="83.5" r="1.3" fill="#FF7A1A" opacity="0.8"/><circle cx="327.5" cy="126.4" r="0.8" fill="#7FF3E8" opacity="0.4"/><circle cx="375" cy="167.1" r="1.7" fill="#FFD66B" opacity="0.5"/><circle cx="338.4" cy="71.7" r="1" fill="#FF7A1A" opacity="0.6"/><circle cx="140.3" cy="39.9" r="0.6" fill="#FFD66B" opacity="0.6"/><circle cx="150.3" cy="127.9" r="2.2" fill="#FF7A1A" opacity="0.8"/><circle cx="213.5" cy="165.6" r="1" fill="#FFD66B" opacity="0.5"/><circle cx="137.5" cy="214.5" r="1.7" fill="#8CC2FF" opacity="0.8"/><circle cx="59.3" cy="141" r="2.2" fill="#1E7BFF" opacity="0.8"/><circle cx="110.1" cy="120.9" r="1" fill="#8CC2FF" opacity="0.8"/><circle cx="422.4" cy="261.5" r="1.7" fill="#C9A6FF" opacity="0.9"/><circle cx="139.5" cy="225.9" r="0.6" fill="#1E7BFF" opacity="0.7"/><circle cx="200.5" cy="115.4" r="1" fill="#1E7BFF" opacity="0.5"/><circle cx="398.7" cy="169.4" r="1" fill="#9D5CFF" opacity="0.6"/><circle cx="415.4" cy="230.7" r="1.7" fill="#9D5CFF" opacity="0.5"/><circle cx="452.7" cy="283.9" r="1.7" fill="#9D5CFF" opacity="0.9"/><circle cx="26.4" cy="226.3" r="1" fill="#8CC2FF" opacity="0.7"/><circle cx="444" cy="212.7" r="0.6" fill="#9D5CFF" opacity="0.5"/><circle cx="163" cy="176.2" r="1.7" fill="#8CC2FF" opacity="0.5"/><circle cx="476.6" cy="190.1" r="2.2" fill="#C9A6FF" opacity="0.8"/><circle cx="200.6" cy="179.6" r="1" fill="#14C9B8" opacity="0.6"/><circle cx="179.2" cy="101.8" r="1" fill="#FFD66B" opacity="0.7"/><circle cx="455.8" cy="84.6" r="1.3" fill="#9D5CFF" opacity="0.5"/><circle cx="368" cy="131" r="1" fill="#FF7A1A" opacity="0.7"/><circle cx="319.8" cy="122.7" r="0.6" fill="#FF7A1A" opacity="0.5"/><circle cx="231.7" cy="150.2" r="1" fill="#8CC2FF" opacity="0.4"/><circle cx="146.4" cy="69.5" r="1" fill="#FF7A1A" opacity="0.4"/><circle cx="212" cy="124.5" r="1" fill="#7FF3E8" opacity="0.7"/><circle cx="204.4" cy="111.7" r="1" fill="#FF2E97" opacity="0.6"/><circle cx="413.9" cy="205.4" r="0.6" fill="#FF8CC6" opacity="0.5"/><circle cx="306.5" cy="222.4" r="1" fill="#FF2E97" opacity="0.9"/><circle cx="83.9" cy="288.6" r="1.3" fill="#1E7BFF" opacity="0.9"/><circle cx="33.2" cy="168.6" r="0.8" fill="#1E7BFF" opacity="0.9"/><circle cx="303.8" cy="239.4" r="1" fill="#FF2E97" opacity="0.5"/><circle cx="345.5" cy="141.2" r="0.8" fill="#FF2E97" opacity="0.5"/><circle cx="150.4" cy="120.6" r="1.7" fill="#FF7A1A" opacity="0.8"/><circle cx="216.2" cy="118.5" r="0.8" fill="#7FF3E8" opacity="0.5"/><circle cx="446.9" cy="25.2" r="1" fill="#FF2E97" opacity="0.5"/><circle cx="117.5" cy="207.7" r="0.8" fill="#8CC2FF" opacity="0.8"/><circle cx="233.8" cy="226.9" r="1" fill="#FFD66B" opacity="0.4"/><circle cx="388.9" cy="225.6" r="1" fill="#FF8CC6" opacity="0.9"/><circle cx="393.7" cy="106" r="1.3" fill="#FFD66B" opacity="0.7"/><circle cx="338.6" cy="113.9" r="1" fill="#C9A6FF" opacity="0.4"/><circle cx="439.7" cy="209.2" r="1" fill="#9D5CFF" opacity="0.9"/><circle cx="181.1" cy="101.7" r="1" fill="#7FF3E8" opacity="0.8"/><circle cx="234.9" cy="81.3" r="1" fill="#14C9B8" opacity="0.9"/><circle cx="184.3" cy="156.7" r="1" fill="#7FF3E8" opacity="0.4"/><circle cx="437.4" cy="265.7" r="0.6" fill="#C9A6FF" opacity="0.5"/><circle cx="230.7" cy="182.3" r="2.2" fill="#FF2E97" opacity="0.4"/><circle cx="180.3" cy="198.4" r="2.2" fill="#1E7BFF" opacity="0.9"/><circle cx="211" cy="168.3" r="1" fill="#FF8CC6" opacity="0.8"/><circle cx="355" cy="203.9" r="1" fill="#FF8CC6" opacity="0.4"/><circle cx="129.9" cy="163.9" r="1.7" fill="#1E7BFF" opacity="0.7"/><circle cx="173.8" cy="174" r="0.6" fill="#8CC2FF" opacity="0.7"/><circle cx="82" cy="125" r="1.3" fill="#7FF3E8" opacity="0.7"/><circle cx="211.6" cy="165.1" r="0.8" fill="#7FF3E8" opacity="0.4"/><circle cx="105.1" cy="161.3" r="1.3" fill="#7FF3E8" opacity="0.4"/><circle cx="169.1" cy="46.2" r="0.6" fill="#8CC2FF" opacity="0.9"/><circle cx="378.1" cy="201.1" r="0.8" fill="#C9A6FF" opacity="0.9"/><circle cx="388.5" cy="151.3" r="1.7" fill="#FF2E97" opacity="0.5"/><circle cx="215.3" cy="143.9" r="1" fill="#FF7A1A" opacity="0.9"/><circle cx="274.7" cy="205.9" r="0.6" fill="#7FF3E8" opacity="0.5"/><circle cx="298.8" cy="118.3" r="1.7" fill="#7FF3E8" opacity="0.5"/><circle cx="154.4" cy="165.8" r="1.7" fill="#7FF3E8" opacity="0.4"/><circle cx="347.7" cy="131.6" r="1.7" fill="#FF7A1A" opacity="0.9"/><circle cx="359.5" cy="62.6" r="2.2" fill="#FFD66B" opacity="0.4"/><circle cx="122.3" cy="195.6" r="1.3" fill="#14C9B8" opacity="0.4"/><circle cx="225.2" cy="80.1" r="0.6" fill="#FF7A1A" opacity="0.7"/><circle cx="452" cy="146.8" r="1.3" fill="#FF8CC6" opacity="0.4"/><circle cx="165.4" cy="185.7" r="1" fill="#FF8CC6" opacity="0.6"/><circle cx="189.2" cy="115" r="0.8" fill="#7FF3E8" opacity="0.6"/><circle cx="225.3" cy="220" r="2.2" fill="#7FF3E8" opacity="0.9"/><circle cx="228.5" cy="71.2" r="0.6" fill="#FF2E97" opacity="0.9"/><circle cx="102.7" cy="123.1" r="1" fill="#8CC2FF" opacity="0.6"/><circle cx="155.5" cy="118.8" r="2.2" fill="#1E7BFF" opacity="0.9"/><circle cx="386.8" cy="236.1" r="1.7" fill="#9D5CFF" opacity="0.9"/><circle cx="165.9" cy="180" r="1.7" fill="#8CC2FF" opacity="0.9"/><circle cx="438.8" cy="200.3" r="2.2" fill="#9D5CFF" opacity="0.8"/><circle cx="339.9" cy="227.1" r="0.6" fill="#9D5CFF" opacity="0.6"/><circle cx="331.2" cy="156.2" r="1.7" fill="#C9A6FF" opacity="0.8"/><circle cx="260.9" cy="188.7" r="1.7" fill="#8CC2FF" opacity="0.4"/><circle cx="409.3" cy="59.1" r="2.2" fill="#FF2E97" opacity="0.8"/><circle cx="407.7" cy="132.3" r="0.8" fill="#FF2E97" opacity="0.4"/><circle cx="160.8" cy="164.9" r="0.8" fill="#8CC2FF" opacity="0.4"/><circle cx="494.7" cy="140.5" r="0.8" fill="#9D5CFF" opacity="0.7"/><circle cx="242.8" cy="73.9" r="1" fill="#14C9B8" opacity="0.7"/><circle cx="362.8" cy="172" r="2.2" fill="#FF2E97" opacity="0.7"/><circle cx="416.9" cy="228.5" r="1" fill="#9D5CFF" opacity="0.4"/><circle cx="243.5" cy="163.4" r="1" fill="#FF2E97" opacity="0.7"/><circle cx="256.8" cy="221.9" r="0.8" fill="#FFD66B" opacity="0.7"/><circle cx="279.2" cy="149.4" r="1.3" fill="#FF7A1A" opacity="0.8"/><circle cx="177.8" cy="179" r="1" fill="#FF7A1A" opacity="0.6"/><circle cx="62.2" cy="183.2" r="1" fill="#1E7BFF" opacity="0.5"/><circle cx="325.1" cy="244.7" r="1.7" fill="#9D5CFF" opacity="0.9"/><circle cx="154.2" cy="223.2" r="2.2" fill="#14C9B8" opacity="0.8"/><circle cx="268.3" cy="62.9" r="1" fill="#FF8CC6" opacity="0.6"/><circle cx="133.7" cy="158.3" r="1.7" fill="#14C9B8" opacity="0.7"/><circle cx="194.7" cy="157.6" r="1" fill="#FFD66B" opacity="0.6"/><circle cx="230.9" cy="88.2" r="1" fill="#14C9B8" opacity="0.7"/><circle cx="243.9" cy="190.6" r="1" fill="#14C9B8" opacity="0.8"/><circle cx="303.4" cy="253.3" r="1" fill="#FFD66B" opacity="0.7"/><circle cx="252.4" cy="164" r="1.3" fill="#14C9B8" opacity="0.6"/><circle cx="193.5" cy="151.5" r="1" fill="#14C9B8" opacity="0.9"/><circle cx="162" cy="151" r="1.7" fill="#8CC2FF" opacity="0.4"/><circle cx="161.5" cy="271.8" r="0.6" fill="#8CC2FF" opacity="0.9"/><circle cx="165.5" cy="193.4" r="1.7" fill="#8CC2FF" opacity="0.7"/><circle cx="343.8" cy="96.5" r="1.3" fill="#FF8CC6" opacity="0.5"/><circle cx="162.6" cy="84.7" r="0.6" fill="#FF7A1A" opacity="0.9"/><circle cx="42" cy="167" r="1" fill="#8CC2FF" opacity="0.6"/><circle cx="163.3" cy="239.1" r="0.8" fill="#1E7BFF" opacity="0.6"/><circle cx="257.2" cy="178.5" r="1" fill="#FF7A1A" opacity="0.6"/><circle cx="112.4" cy="214.5" r="1.7" fill="#FF7A1A" opacity="0.6"/><circle cx="335" cy="70.4" r="1.3" fill="#FFD66B" opacity="0.9"/><circle cx="194.8" cy="181.9" r="1" fill="#8CC2FF" opacity="0.6"/><circle cx="216.1" cy="136.8" r="1.7" fill="#8CC2FF" opacity="0.5"/><circle cx="324.1" cy="260.4" r="2.2" fill="#FF8CC6" opacity="0.6"/><circle cx="200.3" cy="145.1" r="1.7" fill="#FF7A1A" opacity="0.8"/><circle cx="328.7" cy="107" r="2.2" fill="#FF7A1A" opacity="0.4"/><circle cx="474.3" cy="133.7" r="1" fill="#9D5CFF" opacity="0.5"/><circle cx="463.3" cy="157.1" r="1.3" fill="#C9A6FF" opacity="0.5"/><circle cx="447.4" cy="137.1" r="0.6" fill="#FF8CC6" opacity="0.4"/><circle cx="269.7" cy="146.8" r="1" fill="#FF8CC6" opacity="0.8"/><circle cx="345.3" cy="197.5" r="0.8" fill="#9D5CFF" opacity="0.5"/><circle cx="299.5" cy="211.5" r="2.2" fill="#FFD66B" opacity="0.4"/><circle cx="332" cy="196" r="0.8" fill="#FF7A1A" opacity="0.9"/><circle cx="281.1" cy="99.5" r="1" fill="#FF7A1A" opacity="0.8"/><circle cx="409.9" cy="206" r="1" fill="#9D5CFF" opacity="0.7"/><circle cx="85.4" cy="52.7" r="1" fill="#1E7BFF" opacity="0.5"/><circle cx="180.4" cy="242.8" r="2.2" fill="#7FF3E8" opacity="0.9"/><circle cx="370.6" cy="255.5" r="0.8" fill="#C9A6FF" opacity="0.7"/><circle cx="303" cy="78.1" r="1.7" fill="#FF8CC6" opacity="0.4"/><circle cx="494.7" cy="235.3" r="0.6" fill="#9D5CFF" opacity="0.6"/><circle cx="399.1" cy="147.6" r="1.3" fill="#9D5CFF" opacity="0.5"/><circle cx="237.9" cy="25.5" r="0.6" fill="#14C9B8" opacity="0.8"/><circle cx="341" cy="149.1" r="1" fill="#FF2E97" opacity="0.5"/><circle cx="368.3" cy="71.2" r="1.7" fill="#FFD66B" opacity="0.8"/><circle cx="44.6" cy="87.6" r="1" fill="#1E7BFF" opacity="0.8"/><circle cx="491.4" cy="230" r="0.6" fill="#C9A6FF" opacity="0.8"/><circle cx="412.6" cy="204.2" r="1.7" fill="#FF8CC6" opacity="0.8"/><circle cx="275.4" cy="229.7" r="1" fill="#FFD66B" opacity="0.8"/><circle cx="29.5" cy="317.8" r="2.2" fill="#8CC2FF" opacity="0.9"/><circle cx="191.5" cy="134" r="1" fill="#FF2E97" opacity="0.6"/><circle cx="319.2" cy="155.8" r="0.8" fill="#FFD66B" opacity="0.8"/><circle cx="113.6" cy="108.1" r="1" fill="#1E7BFF" opacity="0.5"/><circle cx="295.5" cy="138" r="2.2" fill="#FF7A1A" opacity="0.4"/><circle cx="399.6" cy="87.9" r="1.3" fill="#FF2E97" opacity="0.8"/><circle cx="191.3" cy="59.6" r="1" fill="#FF7A1A" opacity="0.6"/><circle cx="384.2" cy="204" r="1" fill="#9D5CFF" opacity="0.9"/><circle cx="474.5" cy="237.8" r="1" fill="#C9A6FF" opacity="0.4"/><circle cx="90.4" cy="115.6" r="0.8" fill="#7FF3E8" opacity="0.4"/><circle cx="200.6" cy="41.6" r="0.6" fill="#7FF3E8" opacity="0.9"/><circle cx="296.3" cy="81.5" r="1.3" fill="#FF8CC6" opacity="0.4"/><circle cx="372.4" cy="155.8" r="1.3" fill="#FF8CC6" opacity="0.5"/><circle cx="55" cy="128" r="1" fill="#7FF3E8" opacity="0.9"/><circle cx="147.3" cy="109.1" r="1.7" fill="#FF7A1A" opacity="0.9"/><circle cx="331.3" cy="184.8" r="1.7" fill="#FF7A1A" opacity="0.8"/><circle cx="469.8" cy="239.1" r="2.2" fill="#9D5CFF" opacity="0.9"/><circle cx="163.2" cy="138.9" r="1.7" fill="#1E7BFF" opacity="0.7"/><circle cx="188.4" cy="108" r="1" fill="#8CC2FF" opacity="0.4"/><circle cx="291.5" cy="26.3" r="1.7" fill="#FF8CC6" opacity="0.9"/><circle cx="248.7" cy="149.6" r="1.3" fill="#8CC2FF" opacity="0.8"/><circle cx="56.1" cy="264.5" r="1.7" fill="#1E7BFF" opacity="0.4"/><circle cx="378.4" cy="59" r="0.8" fill="#FFD66B" opacity="0.9"/><circle cx="271.6" cy="193.7" r="0.8" fill="#FF7A1A" opacity="0.5"/><circle cx="213.3" cy="197.8" r="1" fill="#FFD66B" opacity="0.7"/><circle cx="351.3" cy="213.4" r="1.7" fill="#FFD66B" opacity="0.4"/><circle cx="402" cy="141.7" r="1.3" fill="#FF7A1A" opacity="0.5"/><circle cx="239.4" cy="79.7" r="1" fill="#FF2E97" opacity="0.6"/><circle cx="148.7" cy="213.7" r="1" fill="#8CC2FF" opacity="0.9"/><circle cx="155.3" cy="174.2" r="0.6" fill="#8CC2FF" opacity="0.6"/><circle cx="316" cy="194.1" r="2.2" fill="#FF7A1A" opacity="0.7"/><circle cx="214.9" cy="67.7" r="1" fill="#14C9B8" opacity="0.4"/><circle cx="235.7" cy="97.8" r="1.7" fill="#7FF3E8" opacity="0.8"/><circle cx="289" cy="90.1" r="1" fill="#FF7A1A" opacity="0.9"/><circle cx="312.5" cy="195.1" r="1.3" fill="#FFD66B" opacity="0.8"/><circle cx="105.9" cy="130.1" r="0.6" fill="#1E7BFF" opacity="0.4"/><circle cx="490.8" cy="163.9" r="1.3" fill="#9D5CFF" opacity="0.5"/><circle cx="463.9" cy="147.3" r="2.2" fill="#C9A6FF" opacity="0.8"/><circle cx="374.5" cy="269.6" r="0.8" fill="#FF2E97" opacity="0.8"/><circle cx="474.4" cy="237.8" r="0.6" fill="#C9A6FF" opacity="0.8"/><circle cx="170.8" cy="138.7" r="0.6" fill="#FF7A1A" opacity="0.4"/><circle cx="216.8" cy="242.9" r="0.6" fill="#FF2E97" opacity="0.8"/><circle cx="402" cy="271.8" r="1.3" fill="#FF8CC6" opacity="0.9"/><circle cx="196.6" cy="90.4" r="1" fill="#7FF3E8" opacity="0.9"/><circle cx="173.6" cy="159.1" r="1" fill="#FFD66B" opacity="0.7"/><circle cx="11.1" cy="182.9" r="1.3" fill="#8CC2FF" opacity="0.6"/><circle cx="258.8" cy="228.2" r="1.7" fill="#FF7A1A" opacity="0.7"/><circle cx="133.7" cy="216.5" r="0.6" fill="#1E7BFF" opacity="0.9"/><circle cx="113.7" cy="47.5" r="1.7" fill="#FF7A1A" opacity="0.5"/><circle cx="35.5" cy="257.7" r="1" fill="#8CC2FF" opacity="0.6"/><circle cx="178.8" cy="276.3" r="1" fill="#1E7BFF" opacity="0.9"/><circle cx="360.7" cy="106.1" r="1" fill="#FF7A1A" opacity="0.8"/><circle cx="69.4" cy="212.4" r="1.3" fill="#1E7BFF" opacity="0.6"/><circle cx="1.3" cy="164.3" r="0.8" fill="#1E7BFF" opacity="0.5"/><circle cx="192.3" cy="190.2" r="1" fill="#FF7A1A" opacity="0.4"/><circle cx="486" cy="137.1" r="1.3" fill="#9D5CFF" opacity="0.6"/><circle cx="325.4" cy="241" r="1.7" fill="#FF2E97" opacity="0.7"/><circle cx="448" cy="185.1" r="1" fill="#FF2E97" opacity="0.7"/><circle cx="428" cy="249.4" r="1.7" fill="#FF2E97" opacity="0.9"/><circle cx="143.3" cy="171.2" r="1" fill="#1E7BFF" opacity="0.5"/><circle cx="87" cy="177.9" r="0.6" fill="#1E7BFF" opacity="0.6"/><circle cx="309.4" cy="170.7" r="2.2" fill="#FF7A1A" opacity="0.6"/><circle cx="248.6" cy="305.1" r="0.6" fill="#FF2E97" opacity="0.5"/><circle cx="392.5" cy="239.8" r="1.7" fill="#FF8CC6" opacity="0.5"/><circle cx="285.2" cy="168.5" r="0.8" fill="#FFD66B" opacity="0.8"/><circle cx="146.2" cy="200.2" r="2.2" fill="#FF7A1A" opacity="0.8"/><circle cx="356.6" cy="56.3" r="1" fill="#FF8CC6" opacity="0.4"/><circle cx="83.6" cy="216.1" r="0.6" fill="#8CC2FF" opacity="0.8"/><circle cx="348.2" cy="227.2" r="1.7" fill="#9D5CFF" opacity="0.4"/><circle cx="11.7" cy="90.2" r="1" fill="#8CC2FF" opacity="0.4"/><circle cx="172.6" cy="28.9" r="1" fill="#FF7A1A" opacity="0.9"/><circle cx="111.1" cy="69.7" r="1.3" fill="#8CC2FF" opacity="0.9"/><circle cx="140" cy="63.4" r="1.3" fill="#7FF3E8" opacity="0.7"/><circle cx="432.9" cy="155.5" r="0.6" fill="#C9A6FF" opacity="0.4"/><circle cx="137.9" cy="117.5" r="0.6" fill="#1E7BFF" opacity="0.7"/><circle cx="397.7" cy="133.8" r="0.6" fill="#C9A6FF" opacity="0.6"/><circle cx="1.3" cy="152.2" r="1.3" fill="#8CC2FF" opacity="0.5"/><circle cx="381.6" cy="256.3" r="1" fill="#C9A6FF" opacity="0.4"/><circle cx="204.7" cy="46" r="2.2" fill="#FFD66B" opacity="0.7"/><circle cx="449.3" cy="284.1" r="1" fill="#C9A6FF" opacity="0.7"/><circle cx="42.1" cy="206.7" r="0.6" fill="#1E7BFF" opacity="0.9"/><circle cx="235.2" cy="12.2" r="1.3" fill="#7FF3E8" opacity="0.9"/><circle cx="67" cy="40.7" r="0.6" fill="#1E7BFF" opacity="0.7"/><circle cx="58.2" cy="181" r="0.6" fill="#1E7BFF" opacity="0.6"/><circle cx="188.3" cy="238.3" r="1.7" fill="#FF7A1A" opacity="0.4"/><circle cx="213.7" cy="289.1" r="1.7" fill="#7FF3E8" opacity="0.7"/><circle cx="307.8" cy="118.3" r="2.2" fill="#FF7A1A" opacity="0.4"/><circle cx="181.7" cy="198.8" r="1.3" fill="#FF7A1A" opacity="0.6"/><circle cx="387.3" cy="170.6" r="0.6" fill="#C9A6FF" opacity="0.9"/><circle cx="194.1" cy="151.2" r="1.3" fill="#7FF3E8" opacity="0.7"/><circle cx="210" cy="78.1" r="0.6" fill="#14C9B8" opacity="0.4"/><circle cx="392.7" cy="58.8" r="2.2" fill="#FF8CC6" opacity="0.7"/><circle cx="193.9" cy="174.4" r="1.7" fill="#1E7BFF" opacity="0.8"/><circle cx="101.4" cy="161.4" r="1.3" fill="#14C9B8" opacity="0.4"/><circle cx="79.6" cy="177.8" r="2.2" fill="#8CC2FF" opacity="0.5"/><circle cx="499.4" cy="223.8" r="2.2" fill="#C9A6FF" opacity="0.6"/></svg>
